<svg id="_x33_0" enable-background="new 0 0 64 64" height="512" viewBox="0 0 64 64" width="512" xmlns="http://www.w3.org/2000/svg"><g><g><g><path d="m29 17h-14c-1.103 0-2-.897-2-2v-8c0-1.103.897-2 2-2h14c1.103 0 2 .897 2 2v8c0 1.103-.897 2-2 2z" fill="#f0bc5e"/></g></g><g><path d="m45 28h8v4h-8z" fill="#f0bc5e"/></g><g><path d="m44.882 12h8.236l1.264-2.527c.404-.809.618-1.714.618-2.619 0-3.228-2.626-5.854-5.854-5.854h-.292c-3.228 0-5.854 2.626-5.854 5.854 0 .904.214 1.81.618 2.618z" fill="#f0bc5e"/></g><g><path d="m13 23h2v2h-2z"/><path d="m17 23h2v2h-2z"/><path d="m21 23h2v2h-2z"/><path d="m25 23h2v2h-2z"/><path d="m29 23h2v2h-2z"/><path d="m60 17h-3.486l.144-.863c.227-1.363.342-2.754.342-4.137v-1h-16v1c0 1.383.115 2.774.342 4.137l.144.863h-6.486v-13c0-1.654-1.346-3-3-3h-20c-1.654 0-3 1.346-3 3v13h-5c-1.654 0-3 1.346-3 3v30c0 1.654 1.346 3 3 3h1v10h54v-10h1c1.654 0 3-1.346 3-3v-30c0-1.654-1.346-3-3-3zm-5.021-4c-.041.941-.139 1.882-.293 2.809l-.393 2.356c-.082.483-.497.835-.987.835h-8.611c-.491 0-.906-.352-.986-.835l-.393-2.356c-.154-.927-.252-1.867-.293-2.809zm-24.979 18h-16c-1.302 0-2.402-.839-2.816-2h21.631c-.413 1.161-1.513 2-2.815 2zm3-4h-22v-6h22zm-21-24h20c.551 0 1 .448 1 1v15h-22v-15c0-.552.449-1 1-1zm-8 16h5v6h-1c-1.654 0-3 1.346-3 3v10c0 1.654 1.346 3 3 3h5c0 2.206 1.794 4 4 4h4c2.206 0 4-1.794 4-4v-2c0-2.206-1.794-4-4-4h-4c-2.206 0-4 1.794-4 4h-5c-.551 0-1-.448-1-1v-10c0-.552.449-1 1-1h1v1c0 2.757 2.243 5 5 5h15v9c0 1.654 1.346 3 3 3h10c1.654 0 3-1.346 3-3v-1h12c1.103 0 2-.897 2-2v-2c0-1.103-.897-2-2-2v-10c0-1.103-.897-2-2-2h-12c-1.103 0-2 .897-2 2v10c-1.103 0-2 .897-2 2v2c0 1.103.897 2 2 2h2v1c0 .552-.449 1-1 1h-10c-.551 0-1-.448-1-1v-9.101c2.279-.465 4-2.484 4-4.899v-9h6.867c.416 1.185 1.532 2 2.827 2h8.611c1.295 0 2.412-.815 2.827-2h3.868c.551 0 1 .448 1 1v27h-58v-27c0-.552.449-1 1-1zm11 22v-2c0-1.103.897-2 2-2h4c1.103 0 2 .897 2 2v2c0 1.103-.897 2-2 2h-4c-1.103 0-2-.897-2-2zm40-6h-12v-10h12zm2 2 .001 2h-16.001v-2zm-50 16h4v8h-4zm44 0v8h-38v-8zm6 8h-4v-8h4zm3-10h-56c-.551 0-1-.448-1-1v-1h58v1c0 .552-.449 1-1 1z"/><path d="m45 27h8v2h-8z"/><path d="m45 31h8v2h-8z"/></g></g></svg>